<svg width="50" height="50" viewBox="0 0 50 50" fill="none" xmlns="http://www.w3.org/2000/svg">
<path d="M50 25C50 11.1891 38.8016 0 25 0C11.1891 0 0 11.1891 0 25C0 37.475 9.13906 47.8187 21.0938 49.6922V32.2281H14.7453V25.0016H21.0938V19.4906C21.0938 13.2266 24.8203 9.76719 30.5328 9.76719C33.2687 9.76719 36.1328 10.2547 36.1328 10.2547V16.4062H32.975C29.875 16.4062 28.9062 18.3359 28.9062 20.3125V25H35.8391L34.725 32.2266H28.9062V49.6906C40.8516 47.8172 50 37.4734 50 24.9984V25Z" fill="#4C529F"/>
</svg>
