<svg width="50" height="50" viewBox="0 0 50 50" fill="none" xmlns="http://www.w3.org/2000/svg">
<path d="M49.1361 20.1793H47.1534V20.0772H25.0008V29.9228H38.9114C36.882 35.6542 31.4287 39.7684 25.0008 39.7684C16.8449 39.7684 10.2323 33.1558 10.2323 25C10.2323 16.8441 16.8449 10.2315 25.0008 10.2315C28.7655 10.2315 32.1905 11.6518 34.7984 13.9717L41.7605 7.00957C37.3644 2.91256 31.4841 0.385925 25.0008 0.385925C11.4077 0.385925 0.386719 11.4069 0.386719 25C0.386719 38.5931 11.4077 49.614 25.0008 49.614C38.5939 49.614 49.6148 38.5931 49.6148 25C49.6148 23.3496 49.445 21.7386 49.1361 20.1793Z" fill="#FFC107"/>
<path d="M3.22656 13.5434L11.3135 19.4741C13.5017 14.0566 18.8011 10.2315 25.0026 10.2315C28.7673 10.2315 32.1924 11.6518 34.8002 13.9717L41.7623 7.00957C37.3662 2.91256 31.486 0.385925 25.0026 0.385925C15.5484 0.385925 7.34942 5.72348 3.22656 13.5434Z" fill="#FF3D00"/>
<path d="M24.9996 49.6142C31.3574 49.6142 37.1343 47.1811 41.5021 43.2244L33.884 36.778C31.3298 38.7205 28.2086 39.7711 24.9996 39.7686C18.5975 39.7686 13.1614 35.6864 11.1136 29.9894L3.08691 36.1737C7.16054 44.145 15.4333 49.6142 24.9996 49.6142Z" fill="#4CAF50"/>
<path d="M49.1353 20.1795H47.1527V20.0773H25V29.9229H38.9106C37.9399 32.6507 36.1912 35.0343 33.8808 36.7792L33.8844 36.7767L41.5025 43.2231C40.9635 43.713 49.6141 37.3072 49.6141 25.0001C49.6141 23.3498 49.4442 21.7388 49.1353 20.1795Z" fill="#1976D2"/>
</svg>
