<svg width="50" height="50" viewBox="0 0 50 50" fill="none" xmlns="http://www.w3.org/2000/svg">
<path d="M32.5 24.9999C32.5 26.9891 31.7098 28.8967 30.3033 30.3032C28.8968 31.7098 26.9891 32.4999 25 32.4999C23.0109 32.4999 21.1032 31.7098 19.6967 30.3032C18.2902 28.8967 17.5 26.9891 17.5 24.9999C17.5 24.5724 17.545 24.1549 17.6225 23.7499H15V33.7424C15 34.4374 15.5625 34.9999 16.2575 34.9999H33.745C34.0781 34.9993 34.3973 34.8665 34.6326 34.6307C34.8679 34.395 35 34.0755 35 33.7424V23.7499H32.3775C32.455 24.1549 32.5 24.5724 32.5 24.9999ZM25 29.9999C25.6568 29.9998 26.3071 29.8703 26.9138 29.6188C27.5205 29.3673 28.0718 28.9987 28.5361 28.5342C29.0003 28.0697 29.3686 27.5183 29.6198 26.9114C29.871 26.3046 30.0002 25.6542 30 24.9974C29.9998 24.3407 29.8703 23.6904 29.6188 23.0836C29.3673 22.4769 28.9988 21.9257 28.5343 21.4614C28.0698 20.9971 27.5183 20.6288 26.9115 20.3777C26.3047 20.1265 25.6543 19.9973 24.9975 19.9974C23.6711 19.9978 22.3991 20.525 21.4615 21.4632C20.5238 22.4013 19.9972 23.6735 19.9975 24.9999C19.9978 26.3264 20.5251 27.5983 21.4632 28.536C22.4014 29.4737 23.6736 30.0003 25 29.9999ZM31 19.7499H33.9975C34.1966 19.7499 34.3877 19.671 34.5287 19.5304C34.6698 19.3898 34.7493 19.1991 34.75 18.9999V16.0024C34.75 15.8029 34.6707 15.6115 34.5296 15.4703C34.3885 15.3292 34.1971 15.2499 33.9975 15.2499H31C30.8004 15.2499 30.609 15.3292 30.4679 15.4703C30.3268 15.6115 30.2475 15.8029 30.2475 16.0024V18.9999C30.25 19.4124 30.5875 19.7499 31 19.7499ZM25 0.999939C18.6348 0.999939 12.5303 3.5285 8.02944 8.02938C3.52856 12.5302 1 18.6347 1 24.9999C1 31.3651 3.52856 37.4696 8.02944 41.9705C12.5303 46.4714 18.6348 48.9999 25 48.9999C28.1517 48.9999 31.2726 48.3792 34.1844 47.173C37.0962 45.9669 39.742 44.1991 41.9706 41.9705C44.1992 39.7419 45.967 37.0962 47.1731 34.1843C48.3792 31.2725 49 28.1517 49 24.9999C49 21.8482 48.3792 18.7274 47.1731 15.8155C45.967 12.9037 44.1992 10.258 41.9706 8.02938C39.742 5.80077 37.0962 4.03294 34.1844 2.82683C31.2726 1.62072 28.1517 0.999939 25 0.999939ZM37.5 34.7224C37.5 36.2499 36.25 37.4999 34.7225 37.4999H15.2775C13.75 37.4999 12.5 36.2499 12.5 34.7224V15.2774C12.5 13.7499 13.75 12.4999 15.2775 12.4999H34.7225C36.25 12.4999 37.5 13.7499 37.5 15.2774V34.7224Z" fill="url(#paint0_linear)"/>
<defs>
<linearGradient id="paint0_linear" x1="4.2228" y1="45.8727" x2="48.6981" y2="7.37235" gradientUnits="userSpaceOnUse">
<stop stop-color="#FFDD55"/>
<stop offset="0.5" stop-color="#FF543E"/>
<stop offset="1" stop-color="#C837AB"/>
</linearGradient>
</defs>
</svg>
