<svg width="24" height="22" viewBox="0 0 24 22" fill="none" xmlns="http://www.w3.org/2000/svg">
<path d="M3.06099 12.77L7.51894 10.5796C7.63936 10.5262 7.74635 10.4388 7.82181 10.3207C8.02763 9.99864 7.918 9.581 7.58778 9.38871C6.32952 8.65606 5.55 7.35585 5.55 5.92987C5.55 3.69962 7.44614 1.87987 9.8 1.87987C11.2287 1.87987 12.5341 2.55578 13.3198 3.65927C13.5384 3.96634 13.971 4.04266 14.2877 3.8372C14.6083 3.62916 14.6957 3.2065 14.4739 2.89504C13.4279 1.4259 11.6916 0.529871 9.8 0.529871C6.68624 0.529871 4.15 2.94103 4.15 5.92987C4.15 7.44513 4.80858 8.8508 5.91583 9.8521L2.42524 11.5672C1.46058 12.0412 0.85 12.9927 0.85 14.0358V14.8549C0.85 16.394 2.15505 17.6299 3.75008 17.6299C4.13002 17.6299 4.45008 17.3342 4.45008 16.9549C4.45008 16.5756 4.13002 16.2799 3.75008 16.2799C2.91492 16.2799 2.25 15.6354 2.25 14.8549V14.0358C2.25 13.5058 2.56037 13.016 3.06099 12.77ZM7.52693 17.0109L11.9583 15.0881C12.6459 15.3724 13.4039 15.5299 14.2 15.5299C14.9961 15.5299 15.7541 15.3724 16.4417 15.0881L20.8731 17.0109C21.4101 17.2439 21.75 17.7522 21.75 18.3071V19.0549C21.75 19.8354 21.0851 20.4799 20.25 20.4799H8.15C7.31492 20.4799 6.65 19.8354 6.65 19.0549V18.3071C6.65 17.7522 6.98989 17.2439 7.52693 17.0109ZM8.55 10.1299C8.55 11.7719 9.31675 13.2411 10.5234 14.2303L6.95234 15.7798C5.9186 16.2283 5.25 17.2149 5.25 18.3071V19.0549C5.25 20.594 6.55503 21.8299 8.15 21.8299H20.25C21.845 21.8299 23.15 20.594 23.15 19.0549V18.3071C23.15 17.2149 22.4814 16.2283 21.4477 15.7798L17.8766 14.2303C19.0833 13.2411 19.85 11.7719 19.85 10.1299C19.85 7.14103 17.3138 4.72987 14.2 4.72987C11.0862 4.72987 8.55 7.14103 8.55 10.1299ZM18.45 10.1299C18.45 12.3601 16.5539 14.1799 14.2 14.1799C11.8461 14.1799 9.95 12.3601 9.95 10.1299C9.95 7.89962 11.8461 6.07987 14.2 6.07987C16.5539 6.07987 18.45 7.89962 18.45 10.1299Z" fill="white" stroke="white" stroke-width="0.3"/>
</svg>
