<svg width="22" height="22" viewBox="0 0 22 22" fill="none" xmlns="http://www.w3.org/2000/svg">
<path d="M7.26941 18.9044C7.13938 18.8429 6.99366 18.8226 6.85178 18.8462L2.75003 19.5299L3.98649 16.8242C4.09209 16.5931 4.06529 16.3231 3.91634 16.1173C2.84674 14.6393 2.26208 12.8646 2.26208 10.9998C2.26208 6.17355 6.17442 2.26109 11.0005 2.26109C15.8266 2.26109 19.7389 6.17355 19.7389 10.9998C19.7389 15.8261 15.8266 19.7385 11.0005 19.7385C9.69178 19.7385 8.42538 19.4511 7.26941 18.9044ZM0.91486 20.1508C0.679875 20.665 1.11487 21.233 1.67254 21.14L6.87015 20.2737C8.15842 20.8484 9.5588 21.1496 11.0005 21.1496C16.6059 21.1496 21.15 16.6054 21.15 10.9998C21.15 5.39423 16.6059 0.85 11.0005 0.85C5.3951 0.85 0.851028 5.39423 0.851028 10.9998C0.851028 13.0222 1.44461 14.9569 2.53629 16.6027L0.91486 20.1508Z" fill="#7C7474" stroke="#7C7474" stroke-width="0.3"/>
</svg>
