<svg width="24" height="24" viewBox="0 0 24 24" fill="none" xmlns="http://www.w3.org/2000/svg">
<path d="M17.6343 15.5686C17.4108 15.6613 17.1657 15.7126 16.9093 15.7126C15.8613 15.7126 15.0093 14.8605 15.0093 13.8125V10.75C15.0093 9.70204 15.8613 8.85 16.9093 8.85C17.9573 8.85 18.8093 9.70204 18.8093 10.75V17.0028C18.8093 20.3923 16.0515 23.1501 12.6612 23.1501H10.7265C9.81423 23.1501 8.90139 22.9347 8.08603 22.527L17.6343 15.5686ZM17.6343 15.5686V17.0028C17.6343 19.7445 15.4045 21.9751 12.662 21.9751H10.7274C9.99647 21.9751 9.26518 21.802 8.61137 21.4747L8.61133 21.4747C7.28767 20.8124 6.33922 19.5475 6.07465 18.0907L6.07463 18.0906L5.70654 16.0735C5.7065 16.0733 5.70646 16.073 5.70641 16.0728C5.69204 15.9887 5.68421 15.9038 5.68421 15.8198C5.68421 15.1682 6.12645 14.6094 6.7602 14.4608L6.76032 14.4608L12.1051 13.2036C12.1297 13.4857 12.0819 13.7714 11.9617 14.039L11.9614 14.0394C11.7733 14.4623 11.4299 14.7818 10.9946 14.9404C10.9946 14.9404 10.9945 14.9404 10.9945 14.9404L9.10898 15.6263L17.6343 15.5686ZM8.41095 17.3779C8.2502 17.0564 8.2332 16.6811 8.36636 16.3463L8.3665 16.3459C8.50043 16.0116 8.77031 15.7495 9.10895 15.6263L8.41095 17.3779ZM8.41095 17.3779L8.94643 18.4497L8.94645 18.4498C9.09239 18.7417 9.44411 18.8559 9.73396 18.7133L9.73506 18.7128C10.025 18.5672 10.1426 18.2149 9.99806 17.9247L9.99799 17.9246L9.46248 16.8518L9.46249 16.8518L9.46186 16.8506C9.44692 16.8213 9.45288 16.7958 9.45856 16.7817L9.45862 16.7817L9.46013 16.7777C9.46452 16.7659 9.47714 16.7422 9.51103 16.7298C9.51106 16.7298 9.51109 16.7298 9.51112 16.7297L11.3964 16.0439L11.3964 16.0439C12.132 15.7762 12.7141 15.2347 13.0343 14.5196M8.41095 17.3779L13.0343 14.5196M13.0343 14.5196C13.0343 14.5196 13.0343 14.5196 13.0343 14.5196L12.8974 14.4583L13.0343 14.5196ZM13.0343 14.5196C13.3546 13.8043 13.3702 13.0088 13.0795 12.2816L13.0795 12.2816M13.0343 14.5196L13.0795 12.2816M13.0795 12.2816C12.971 12.0102 12.6826 11.8646 12.4017 11.9275L12.4017 11.9275M13.0795 12.2816L12.4017 11.9275M12.4017 11.9275L12.4001 11.9279M12.4017 11.9275L12.4001 11.9279M12.4001 11.9279L6.49216 13.3183C5.32446 13.5923 4.50918 14.6214 4.50918 15.8207C4.50918 15.9748 4.52411 16.1276 4.54979 16.2797L4.54978 16.2797M12.4001 11.9279L4.54978 16.2797M4.54978 16.2797L4.55012 16.2816M4.54978 16.2797L4.55012 16.2816M4.55012 16.2816L4.91848 18.3028M4.55012 16.2816L4.91848 18.3028M4.91848 18.3028C4.91848 18.3028 4.91848 18.3028 4.91849 18.3029M4.91848 18.3028L4.91849 18.3029M4.91849 18.3029C5.24896 20.1211 6.43284 21.7009 8.08601 22.527L4.91849 18.3029ZM17.6343 13.8125C17.6343 14.2119 17.3094 14.5375 16.9093 14.5375C16.5093 14.5375 16.1843 14.2119 16.1843 13.8125V10.75C16.1843 10.3506 16.5093 10.025 16.9093 10.025C17.3094 10.025 17.6343 10.3506 17.6343 10.75V13.8125Z" fill="#7C7474" stroke="#7C7474" stroke-width="0.3"/>
<path d="M16.1842 10.7501V9.00003C16.1842 7.95204 15.3322 7.1 14.2842 7.1C13.2362 7.1 12.3842 7.95204 12.3842 9.00003V13.3751C12.3842 14.4231 13.2362 15.2751 14.2842 15.2751C15.3312 15.2751 16.1842 14.4231 16.1842 13.3751V11.6251C16.1842 11.4513 16.1087 11.2952 15.9888 11.1876C16.1087 11.08 16.1842 10.9238 16.1842 10.7501ZM15.2047 11.1876C15.0847 11.2952 15.0092 11.4513 15.0092 11.6251V13.3751C15.0092 13.7745 14.6843 14.1001 14.2842 14.1001C13.8841 14.1001 13.5592 13.7744 13.5592 13.3751V9.00007C13.5592 8.60067 13.8841 8.27508 14.2842 8.27508C14.6843 8.27508 15.0092 8.60071 15.0092 9.00007V10.7501C15.0092 10.9238 15.0847 11.08 15.2047 11.1876Z" fill="#7C7474" stroke="#7C7474" stroke-width="0.3"/>
<path d="M9.63497 3.64677L9.63526 3.6468C9.73811 2.61244 10.5776 1.85 11.5932 1.85C12.6779 1.85 13.5588 2.73182 13.5588 3.8157V9.00012C13.5588 9.32446 13.2956 9.58763 12.9713 9.58763C12.6469 9.58763 12.3838 9.32446 12.3838 9.00012V3.8157C12.3838 3.37968 12.0292 3.02508 11.5932 3.02508C11.1861 3.02508 10.85 3.32842 10.8075 3.73164L10.5364 10.999L10.5364 10.9991C10.5216 11.3893 10.2444 11.7169 9.85799 11.7924L9.85619 11.7928L9.85619 11.7928C9.4699 11.8635 9.09028 11.6707 8.93003 11.3107L6.47483 5.80615L6.47418 5.80469L6.47418 5.80469C6.38912 5.60839 6.22504 5.46095 6.0227 5.39616L6.0224 5.39607C5.82228 5.33152 5.6012 5.35685 5.41944 5.46587C5.12596 5.64296 4.99263 5.99389 5.09583 6.32023L5.09584 6.32027L7.40672 13.6362L7.40674 13.6363C7.50419 13.9452 7.33292 14.2752 7.0239 14.373C7.02379 14.373 7.02368 14.373 7.02357 14.3731L6.97842 14.23C6.9347 14.2441 6.89007 14.2502 6.84631 14.2502C6.65993 14.2502 6.48844 14.1311 6.42893 13.9439L9.63497 3.64677ZM9.63497 3.64677L9.63463 3.65603L9.41548 9.51442L9.63497 3.64677ZM4.95281 6.36545L7.26368 13.6814L4.95281 6.36545ZM4.95281 6.36545C4.82857 5.97256 4.98956 5.54993 5.34217 5.33731L4.95281 6.36545Z" fill="#7C7474" stroke="#7C7474" stroke-width="0.3"/>
</svg>
