<svg width="25" height="30" viewBox="0 0 25 30" fill="none" xmlns="http://www.w3.org/2000/svg">
<path fill-rule="evenodd" clip-rule="evenodd" d="M12.5 8C13.8807 8 15 6.88071 15 5.5C15 4.11929 13.8807 3 12.5 3C11.1193 3 10 4.11929 10 5.5C10 6.88071 11.1193 8 12.5 8Z" fill="#ADADAD"/>
<path fill-rule="evenodd" clip-rule="evenodd" d="M12.5 18C13.8807 18 15 16.8807 15 15.5C15 14.1193 13.8807 13 12.5 13C11.1193 13 10 14.1193 10 15.5C10 16.8807 11.1193 18 12.5 18Z" fill="#ADADAD"/>
<path fill-rule="evenodd" clip-rule="evenodd" d="M12.5 28C13.8807 28 15 26.8807 15 25.5C15 24.1193 13.8807 23 12.5 23C11.1193 23 10 24.1193 10 25.5C10 26.8807 11.1193 28 12.5 28Z" fill="#ADADAD"/>
</svg>
